<svg xmlns="http://www.w3.org/2000/svg" xmlns:xlink="http://www.w3.org/1999/xlink" viewBox="0 0 200 200">
    <symbol id="getsharednet-logo" viewBox="0 0 200 200">
        <!-- center => (inner circle / right) -->
        <line x1="100" y1="100" x2="138" y2="100" style="stroke-width: 5"/>
        <!-- center => (inner circle / bottom) -->
        <line x1="100" y1="100" x2="100" y2="138" style="stroke-width: 5"/>
        <!-- center => (inner circle / left) -->
        <line x1="100" y1="100" x2="62" y2="100" style="stroke-width: 5"/>
        <!-- center => (inner circle / top) -->
        <line x1="100" y1="100" x2="100" y2="62" style="stroke-width: 5"/>
        <!-- (inner circle / right) => (outer circle / right / top) -->
        <line x1="138" y1="100" x2="169.290964938" y2="71.2987425726" style="stroke-width: 5"/>
        <!-- (inner circle / right) => (outer circle / right / bottom) -->
        <line x1="138" y1="100" x2="169.290964938" y2="128.701257427" style="stroke-width: 5"/>
        <!-- (inner circle / bottom) => (outer circle / bottom / right) -->
        <line x1="100" y1="138" x2="128.701257427" y2="169.290964938" style="stroke-width: 5"/>
        <!-- (inner circle / bottom) => (outer circle / bottom / left) -->
        <line x1="100" y1="138" x2="71.2987425726" y2="169.290964938" style="stroke-width: 5"/>
        <!-- (inner circle / left) => (outer circle / left / bottom) -->
        <line x1="62" y1="100" x2="30.7090350617" y2="128.701257427" style="stroke-width: 5"/>
        <!-- (inner circle / left) => (outer circle / left / top) -->
        <line x1="62" y1="100" x2="30.7090350617" y2="71.2987425726" style="stroke-width: 5"/>
        <!-- (inner circle / top) => (outer circle / top / left) -->
        <line x1="100" y1="62" x2="71.2987425726" y2="30.7090350617" style="stroke-width: 5"/>
        <!-- (inner circle / top) => (outer circle / top / right) -->
        <line x1="100" y1="62" x2="128.701257427" y2="30.7090350617" style="stroke-width: 5"/>
        <!-- (outer circle / top / right) => (outer circle / right / top) -->
        <line x1="128.701257427" y1="30.7090350617" x2="169.290964938" y2="71.2987425726" style="stroke-width: 5"/>
        <!-- (outer circle / right / bottom) => (outer circle / bottom / right) -->
        <line x1="169.290964938" y1="128.701257427" x2="128.701257427" y2="169.290964938" style="stroke-width: 5"/>
        <!-- (outer circle / bottom / left) => (outer circle / left / bottom) -->
        <line x1="71.2987425726" y1="169.290964938" x2="30.7090350617" y2="128.701257427" style="stroke-width: 5"/>
        <!-- (outer circle / left / top) => (outer circle / top / left) -->
        <line x1="30.7090350617" y1="71.2987425726" x2="71.2987425726" y2="30.7090350617" style="stroke-width: 5"/>
        <!-- center -->
        <circle r="14" cx="100" cy="100"/>
        <!-- inner circle / right -->
        <circle r="14" cx="138" cy="100"/>
        <!-- inner circle / bottom -->
        <circle r="14" cx="100" cy="138"/>
        <!-- inner circle / left -->
        <circle r="14" cx="62" cy="100"/>
        <!-- inner circle / top -->
        <circle r="14" cx="100" cy="62"/>
        <!-- outer circle / right / top -->
        <circle r="14" cx="169.290964938" cy="71.2987425726"/>
        <!-- outer circle / right / bottom -->
        <circle r="14" cx="169.290964938" cy="128.701257427"/>
        <!-- outer circle / bottom / right -->
        <circle r="14" cx="128.701257427" cy="169.290964938"/>
        <!-- outer circle / bottom / left -->
        <circle r="14" cx="71.2987425726" cy="169.290964938"/>
        <!-- outer circle / left / bottom -->
        <circle r="14" cx="30.7090350617" cy="128.701257427"/>
        <!-- outer circle / left / top -->
        <circle r="14" cx="30.7090350617" cy="71.2987425726"/>
        <!-- outer circle / top / left -->
        <circle r="14" cx="71.2987425726" cy="30.7090350617"/>
        <!-- outer circle / top / right -->
        <circle r="14" cx="128.701257427" cy="30.7090350617"/>
    </symbol>
</svg>